<?xml version="1.0" encoding="UTF-8" standalone="no"?> <svg id="Layer_1" data-name="Layer 1" xmlns="http://www.w3.org/2000/svg" viewBox="0 0 64 64"><title>concert_1</title><path d="M22,61H4a1,1,0,0,1-1-1V42a1,1,0,0,1,1-1H22a1,1,0,0,1,1,1V60A1,1,0,0,1,22,61ZM5,59H21V43H5Z"/><path d="M22,43H4a1,1,0,0,1-1-1V24a1,1,0,0,1,1-1H22a1,1,0,0,1,1,1V42A1,1,0,0,1,22,43ZM5,41H21V25H5Z"/><path d="M22,25H4a1,1,0,0,1-1-1V6A1,1,0,0,1,4,5H22a1,1,0,0,1,1,1V24A1,1,0,0,1,22,25ZM5,23H21V7H5Z"/><path d="M60,61H4a1,1,0,0,1,0-2H60a1,1,0,0,1,0,2Z"/><path d="M32,61a1,1,0,0,1-1-1V40a1,1,0,0,1,2,0V60A1,1,0,0,1,32,61Z"/><path d="M29,44a1,1,0,0,1-.71-1.71l6-6a1,1,0,0,1,1.42,1.42l-6,6A1,1,0,0,1,29,44Z"/><path d="M13,21a6,6,0,1,1,6-6A6,6,0,0,1,13,21Zm0-10a4,4,0,1,0,4,4A4,4,0,0,0,13,11Z"/><path d="M13,39a6,6,0,1,1,6-6A6,6,0,0,1,13,39Zm0-10a4,4,0,1,0,4,4A4,4,0,0,0,13,29Z"/><path d="M13,57a6,6,0,1,1,6-6A6,6,0,0,1,13,57Zm0-10a4,4,0,1,0,4,4A4,4,0,0,0,13,47Z"/><path d="M60,61H42a1,1,0,0,1-1-1V42a1,1,0,0,1,1-1H60a1,1,0,0,1,1,1V60A1,1,0,0,1,60,61ZM43,59H59V43H43Z"/><path d="M60,43H42a1,1,0,0,1-1-1V24a1,1,0,0,1,1-1H60a1,1,0,0,1,1,1V42A1,1,0,0,1,60,43ZM43,41H59V25H43Z"/><path d="M60,25H42a1,1,0,0,1-1-1V6a1,1,0,0,1,1-1H60a1,1,0,0,1,1,1V24A1,1,0,0,1,60,25ZM43,23H59V7H43Z"/><path d="M51,21a6,6,0,1,1,6-6A6,6,0,0,1,51,21Zm0-10a4,4,0,1,0,4,4A4,4,0,0,0,51,11Z"/><path d="M51,39a6,6,0,1,1,6-6A6,6,0,0,1,51,39Zm0-10a4,4,0,1,0,4,4A4,4,0,0,0,51,29Z"/><path d="M51,57a6,6,0,1,1,6-6A6,6,0,0,1,51,57Zm0-10a4,4,0,1,0,4,4A4,4,0,0,0,51,47Z"/><path d="M35,9H29a1,1,0,0,1-1-1V4a1,1,0,0,1,1-1h6a1,1,0,0,1,1,1V8A1,1,0,0,1,35,9ZM30,7h4V5H30Z"/><path d="M38,17H26a1,1,0,0,1-1-1V11a4,4,0,0,1,4-4h6a4,4,0,0,1,4,4v5A1,1,0,0,1,38,17ZM27,15H37V11a2,2,0,0,0-2-2H29a2,2,0,0,0-2,2Z"/></svg>